<?xml version="1.0" ?>
<!-- Uploaded to: SVG Repo, www.svgrepo.com, Generator: SVG Repo Mixer Tools -->
<svg fill="#000000" width="800px" height="800px" viewBox="0 0 64 64" xmlns="http://www.w3.org/2000/svg">
<g id="a"/>
<g id="b"/>
<g id="c"/>
<g id="d"/>
<g id="e"/>
<g id="f"/>
<g id="g"/>
<g id="h"/>
<g id="i"/>
<g id="j"/>
<g id="k"/>
<g id="l"/>
<g id="m"/>
<g id="n">
<path d="M18.34,31.38l-3.39,4.94-9.02-4.7c-.65-.33-1.44-.08-1.78,.56-.2,.38-.2,.84,0,1.22l5.31,10.28c.35,.68,.81,1.31,1.35,1.86l12.54,12.66c.78,.79,2.03,.81,2.84,.06l6.95-6.45,9.31,6.63c.36,.26,.78,.38,1.19,.38,.61,0,1.22-.28,1.62-.81l5.85-7.69c.53-.69,.82-1.55,.82-2.42V27.6l6.92-10.19c.47-.69,.75-1.5,.81-2.33l.33-4.51c.07-.94-.28-1.85-.97-2.5l-2.47-2.34c-.25-.25-.57-.42-.92-.5h0c-.71-.16-1.44,.08-1.91,.63l-2.69,3.12-1.3,.08-3.21-2.09c-.72-.46-1.55-.71-2.4-.71h-6.05c-.94,0-1.83,.42-2.42,1.15l-3.59,4.43c-.49,.61-.88,1.29-1.14,2.03l-4.32,12.16c-.15,.43-.13,.9,.07,1.31s.54,.72,.97,.88c.18,.07,.38,.1,.57,.1h3.82v1.79h-11.3c-.96,.01-1.86,.48-2.4,1.28Zm-11.42,3.01l6.9,3.59-2.87,4.19-4.02-7.78Zm27.13-4.31l9,10.87-8.98,7.44-.02-17.29h0v-1.02Zm15.89,16.05l-14.77-17.83h14.77v17.83Zm-6.32,10.67l-8.91-6.35,9.62-7.96,5.29,6.38c-.04,.07-.03,.17-.08,.23l-5.91,7.7ZM57.99,10.56l-.27,3.7-5.18-3.37,5.45-.33Zm-1.28-1.93l-2.9,.18,1.39-1.61,1.51,1.43Zm-19.51,.04c.21-.26,.53-.41,.87-.41h6.05c.47,0,.92,.13,1.31,.39l11.77,7.65-6.5,9.57-17.07-12.78,3.57-4.41Zm-8.58,17.66l4.07-11.46,15.25,11.42-19.32,.03Zm3.43,5.78l.02,17.98-7.29,6.71-12.54-12.66s-.07-.11-.11-.15l7.86-11.47c.17-.25,.45-.4,.75-.4h11.3Z"/>
</g>
<g id="o"/>
<g id="p"/>
<g id="q"/>
<g id="r"/>
<g id="s"/>
<g id="t"/>
<g id="u"/>
<g id="v"/>
<g id="w"/>
<g id="x"/>
<g id="y"/>
<g id="a`"/>
<g id="aa"/>
<g id="ab"/>
<g id="ac"/>
<g id="ad"/>
<g id="ae"/>
<g id="af"/>
<g id="ag"/>
<g id="ah"/>
<g id="ai"/>
<g id="aj"/>
<g id="ak"/>
<g id="al"/>
<g id="am"/>
<g id="an"/>
<g id="ao"/>
<g id="ap"/>
<g id="aq"/>
<g id="ar"/>
<g id="as"/>
<g id="at"/>
<g id="au"/>
<g id="av"/>
<g id="aw"/>
<g id="ax"/>
</svg>