<?xml version="1.0" ?>
<!-- Uploaded to: SVG Repo, www.svgrepo.com, Generator: SVG Repo Mixer Tools -->
<svg fill="#000000" width="800px" height="800px" viewBox="0 0 64 64" xmlns="http://www.w3.org/2000/svg">
<g id="a"/>
<g id="b"/>
<g id="c"/>
<g id="d"/>
<g id="e"/>
<g id="f"/>
<g id="g"/>
<g id="h"/>
<g id="i"/>
<g id="j"/>
<g id="k"/>
<g id="l"/>
<g id="m"/>
<g id="n"/>
<g id="o"/>
<g id="p"/>
<g id="q"/>
<g id="r"/>
<g id="s"/>
<g id="t"/>
<g id="u"/>
<g id="v"/>
<g id="w"/>
<g id="x"/>
<g id="y"/>
<g id="a`"/>
<g id="aa"/>
<g id="ab"/>
<g id="ac"/>
<g id="ad"/>
<g id="ae"/>
<g id="af"/>
<g id="ag"/>
<g id="ah"/>
<g id="ai"/>
<g id="aj"/>
<g id="ak"/>
<g id="al">
<path d="M9.59,27.91c.31,.49,.86,.74,1.44,.66,.57-.08,1.03-.48,1.2-1.03l.77-2.57,4.16,.94v8.32c0,.9,.33,1.76,.93,2.43l12.49,14.02c.61,.69,1.5,1.09,2.42,1.09l2.23,.02,3.88,7.39c.26,.5,.78,.82,1.35,.83h.02c.56,0,1.08-.31,1.35-.8l3.86-6.98c.45-.81,.53-1.78,.22-2.65l-3.24-9.27,3.25-3.64c.6-.67,.93-1.53,.93-2.43v-8.32l4.16-.94,.77,2.57c.17,.55,.63,.95,1.2,1.03,.58,.08,1.12-.17,1.44-.66l2.74-4.25c.59-.92,.37-2.15-.51-2.8l-5.62-4.18c-.6-.45-1.26-.82-1.95-1.11l-2.23-.94v-1.9c0-.92-.36-1.78-1-2.43l-5.26-5.29c-.64-.64-1.53-1.01-2.43-1.01h-12.28c-.92,0-1.78,.36-2.43,1.01l-5.26,5.29c-.65,.65-1,1.52-1,2.43v1.9l-2.23,.94c-.7,.29-1.35,.67-1.95,1.11l-5.62,4.18c-.88,.65-1.1,1.88-.51,2.8l2.74,4.25Zm30.89,29.59l-2.99-5.69,6.11,.04-3.12,5.65Zm3.4-7.65l-8.03-.05h-1.63l6.92-7.78,2.74,7.84Zm11.59-27.27l-2.11,3.28-1.91-6.37,4.01,2.98s.04,.07,.02,.11Zm-7.18-5.16c.19,.08,.35,.21,.53,.3l1.61,5.34-3.58,.81v-7.06l1.45,.61Zm-29.13-4.67c0-.39,.15-.75,.42-1.02l5.26-5.29c.27-.27,.63-.42,1.02-.42h12.28c.38,0,.75,.15,1.01,.42l5.26,5.29c.27,.27,.42,.64,.42,1.02v21.49c0,.41-.15,.8-.42,1.1l-12.42,13.94-12.42-13.94c-.27-.3-.42-.69-.42-1.1V12.74Zm-2,4.06v7.06l-3.58-.81,1.61-5.34c.18-.09,.34-.22,.53-.3l1.45-.61Zm-8.61,5.66l4.01-2.98-1.92,6.37-2.11-3.28s-.01-.08,.02-.11Z"/>
</g>
<g id="am"/>
<g id="an"/>
<g id="ao"/>
<g id="ap"/>
<g id="aq"/>
<g id="ar"/>
<g id="as"/>
<g id="at"/>
<g id="au"/>
<g id="av"/>
<g id="aw"/>
<g id="ax"/>
</svg>