<?xml version="1.0" ?>
<!-- Uploaded to: SVG Repo, www.svgrepo.com, Generator: SVG Repo Mixer Tools -->
<svg fill="#000000" width="800px" height="800px" viewBox="0 0 64 64" xmlns="http://www.w3.org/2000/svg">
<g id="a"/>
<g id="b"/>
<g id="c"/>
<g id="d"/>
<g id="e"/>
<g id="f"/>
<g id="g"/>
<g id="h"/>
<g id="i"/>
<g id="j"/>
<g id="k"/>
<g id="l"/>
<g id="m"/>
<g id="n"/>
<g id="o"/>
<g id="p"/>
<g id="q"/>
<g id="r"/>
<g id="s"/>
<g id="t"/>
<g id="u"/>
<g id="v"/>
<g id="w"/>
<g id="x"/>
<g id="y"/>
<g id="a`"/>
<g id="aa"/>
<g id="ab"/>
<g id="ac">
<path d="M4,34.56c0,.29,.08,.58,.23,.82l7.5,12.14c.52,.84,1.42,1.34,2.4,1.34H49.86c.99,0,1.88-.5,2.4-1.34l7.5-12.14c.22-.36,.29-.78,.19-1.18s-.35-.75-.7-.97c-.25-.15-.53-.23-.82-.23h-10.64c-.34,0-.66-.15-.88-.42l-13.5-16.76c-.31-.38-.74-.62-1.22-.67-.63-.06-1.23,.19-1.61,.67l-13.5,16.76c-.21,.27-.53,.42-.88,.42H5.57c-.86,0-1.57,.7-1.57,1.57Zm43.83,12.3H16.17l15.83-11.63,15.83,11.63Zm9.82-11.87l-7.06,11.42-15.55-11.42h22.61Zm-12.97-2h-11.69v-14.51l11.69,14.51Zm-13.69-14.51v14.51h-11.69l11.69-14.51Zm-2.05,16.51l-15.55,11.42-7.06-11.42H28.95Z"/>
</g>
<g id="ad"/>
<g id="ae"/>
<g id="af"/>
<g id="ag"/>
<g id="ah"/>
<g id="ai"/>
<g id="aj"/>
<g id="ak"/>
<g id="al"/>
<g id="am"/>
<g id="an"/>
<g id="ao"/>
<g id="ap"/>
<g id="aq"/>
<g id="ar"/>
<g id="as"/>
<g id="at"/>
<g id="au"/>
<g id="av"/>
<g id="aw"/>
<g id="ax"/>
</svg>