<?xml version="1.0" ?>
<!-- Uploaded to: SVG Repo, www.svgrepo.com, Generator: SVG Repo Mixer Tools -->
<svg fill="#000000" width="800px" height="800px" viewBox="0 0 64 64" xmlns="http://www.w3.org/2000/svg">
<g id="a">
<path d="M58.21,24.05l-16.34-3.04-7.94-14.6c-.4-.74-1.17-1.11-1.93-1.11s-1.53,.37-1.93,1.11l-7.94,14.6-16.34,3.04c-1.66,.31-2.35,2.44-1.19,3.67l11.44,12.06-2.16,16.48c-.22,1.67,1.6,2.99,3.12,2.27l15.01-7.15,15.01,7.15c1.52,.72,3.34-.6,3.12-2.27l-2.16-16.48,11.44-12.06c1.16-1.22,.46-3.36-1.19-3.67Zm-16.07-.95l13.99,2.6-14.46,4.7,.47-7.3Zm2.99,15.76l-7.42,1.89-4.1-5.64,6.63-2.15,4.89,5.89Zm-12.13-29.97l6.8,12.5-6.8,2.71V8.89Zm0,17.36l7.12-2.83-.49,7.64-6.63,2.15v-6.97Zm-2-17.36v15.21l-6.8-2.7,6.8-12.5Zm0,17.36v6.97l-6.62-2.15-.49-7.64,7.12,2.83Zm-.62,8.87l-4.1,5.64-7.42-1.89,4.89-5.89,6.63,2.15Zm-8.52-12.02l.47,7.3-14.46-4.7,13.99-2.6Zm-14.62,4.5l14.46,4.7-4.67,5.63L7.24,27.6Zm8.84,27.2l1.85-14.11,7.09,1.81-8.94,12.3Zm1.62,1.18l8.94-12.31,3.91,6.18-12.85,6.12Zm14.3-7.57l-4.1-6.47,4.1-5.64,4.1,5.64-4.1,6.47Zm1.45,1.45l3.91-6.18,8.95,12.31-12.86-6.13Zm5.53-7.36l7.09-1.81,1.85,14.11-8.94-12.3Zm7.98-4.56l-4.67-5.63,14.46-4.7-9.79,10.33Z"/>
</g>
<g id="b"/>
<g id="c"/>
<g id="d"/>
<g id="e"/>
<g id="f"/>
<g id="g"/>
<g id="h"/>
<g id="i"/>
<g id="j"/>
<g id="k"/>
<g id="l"/>
<g id="m"/>
<g id="n"/>
<g id="o"/>
<g id="p"/>
<g id="q"/>
<g id="r"/>
<g id="s"/>
<g id="t"/>
<g id="u"/>
<g id="v"/>
<g id="w"/>
<g id="x"/>
<g id="y"/>
<g id="a`"/>
<g id="aa"/>
<g id="ab"/>
<g id="ac"/>
<g id="ad"/>
<g id="ae"/>
<g id="af"/>
<g id="ag"/>
<g id="ah"/>
<g id="ai"/>
<g id="aj"/>
<g id="ak"/>
<g id="al"/>
<g id="am"/>
<g id="an"/>
<g id="ao"/>
<g id="ap"/>
<g id="aq"/>
<g id="ar"/>
<g id="as"/>
<g id="at"/>
<g id="au"/>
<g id="av"/>
<g id="aw"/>
<g id="ax"/>
</svg>